<svg width="310" height="69" viewBox="0 0 310 69" fill="none" xmlns="http://www.w3.org/2000/svg">
<path d="M0 25.7082C3.66667 16.5416 16.3 3.70823 37.5 25.7082C50.5 33.2082 58.5 38.2082 69 25.7082C79.5 13.2082 100 -25.2918 123.5 25.7082C137.9 45.7082 143.833 52.7082 145 53.7083C147.333 59.7083 154.2 68.1083 163 53.7083C171.8 39.3083 184.333 21.7083 189.5 14.7083C195 9.37492 210.4 4.80825 228 29.2083C250.5 47.2083 258 58.7083 279.5 36.7083C296.7 19.1083 304.667 22.0416 306.5 25.7082" transform="translate(2 2)" stroke="url(#paint0_linear)" stroke-width="3"/>
<circle cx="9" cy="9" r="9" transform="translate(146 51)" fill="#FF7207"/>
<path d="M3.07617 7.81836H0.216797V6.93359H3.07617V7.81836ZM7.58789 11H6.49805V3.77539L4.3125 4.57812V3.59375L7.41797 2.42773H7.58789V11ZM15.9375 4.69531C15.9375 5.12109 15.8242 5.5 15.5977 5.83203C15.375 6.16406 15.0723 6.42383 14.6895 6.61133C15.1348 6.80273 15.4863 7.08203 15.7441 7.44922C16.0059 7.81641 16.1367 8.23242 16.1367 8.69727C16.1367 9.43555 15.8867 10.0234 15.3867 10.4609C14.8906 10.8984 14.2363 11.1172 13.4238 11.1172C12.6035 11.1172 11.9453 10.8984 11.4492 10.4609C10.957 10.0195 10.7109 9.43164 10.7109 8.69727C10.7109 8.23633 10.8359 7.82031 11.0859 7.44922C11.3398 7.07812 11.6895 6.79688 12.1348 6.60547C11.7559 6.41797 11.457 6.1582 11.2383 5.82617C11.0195 5.49414 10.9102 5.11719 10.9102 4.69531C10.9102 3.97656 11.1406 3.40625 11.6016 2.98438C12.0625 2.5625 12.6699 2.35156 13.4238 2.35156C14.1738 2.35156 14.7793 2.5625 15.2402 2.98438C15.7051 3.40625 15.9375 3.97656 15.9375 4.69531ZM15.0527 8.67383C15.0527 8.19727 14.9004 7.80859 14.5957 7.50781C14.2949 7.20703 13.9004 7.05664 13.4121 7.05664C12.9238 7.05664 12.5312 7.20508 12.2344 7.50195C11.9414 7.79883 11.7949 8.18945 11.7949 8.67383C11.7949 9.1582 11.9375 9.53906 12.2227 9.81641C12.5117 10.0938 12.9121 10.2324 13.4238 10.2324C13.9316 10.2324 14.3301 10.0938 14.6191 9.81641C14.9082 9.53516 15.0527 9.1543 15.0527 8.67383ZM13.4238 3.24219C12.998 3.24219 12.6523 3.375 12.3867 3.64062C12.125 3.90234 11.9941 4.25977 11.9941 4.71289C11.9941 5.14648 12.123 5.49805 12.3809 5.76758C12.6426 6.0332 12.9902 6.16602 13.4238 6.16602C13.8574 6.16602 14.2031 6.0332 14.4609 5.76758C14.7227 5.49805 14.8535 5.14648 14.8535 4.71289C14.8535 4.2793 14.7188 3.92578 14.4492 3.65234C14.1797 3.37891 13.8379 3.24219 13.4238 3.24219Z" transform="translate(146 32)" fill="#FF7207"/>
<defs>
<linearGradient id="paint0_linear" x2="1" gradientUnits="userSpaceOnUse" gradientTransform="matrix(310 -3.5 17.398 1540.97 -11.699 -739.485)">
<stop offset="0.241931" stop-color="#FFC53F"/>
<stop offset="1" stop-color="#FF6600"/>
</linearGradient>
</defs>
</svg>
