<svg width="310" height="66" viewBox="0 0 310 66" fill="none" xmlns="http://www.w3.org/2000/svg">
<path d="M0 25.7082C3.66667 16.5416 16.3 3.70823 37.5 25.7082C50.5 33.2082 58.5 38.2082 69 25.7082C79.5 13.2082 100 -25.2918 123.5 25.7082C137.9 45.7082 143.833 52.7082 145 53.7083C147.333 59.7083 154.2 68.1083 163 53.7083C171.8 39.3083 184.333 21.7083 189.5 14.7083C195 9.37492 210.4 4.80825 228 29.2083C250.5 47.2083 258 58.7083 279.5 36.7083C296.7 19.1083 304.667 22.0416 306.5 25.7082" transform="translate(2 2)" stroke="#215DF9" stroke-width="3"/>
<circle cx="9" cy="9" r="9" transform="translate(147 47)" fill="#215DF9"/>
<path d="M3.07617 7.81836H0.216797V6.93359H3.07617V7.81836ZM7.58789 11H6.49805V3.77539L4.3125 4.57812V3.59375L7.41797 2.42773H7.58789V11ZM15.0176 2.46289V3.38281H14.8184C13.9746 3.39844 13.3027 3.64844 12.8027 4.13281C12.3027 4.61719 12.0137 5.29883 11.9355 6.17773C12.3848 5.66211 12.998 5.4043 13.7754 5.4043C14.5176 5.4043 15.1094 5.66602 15.5508 6.18945C15.9961 6.71289 16.2188 7.38867 16.2188 8.2168C16.2188 9.0957 15.9785 9.79883 15.498 10.3262C15.0215 10.8535 14.3809 11.1172 13.5762 11.1172C12.7598 11.1172 12.0977 10.8047 11.5898 10.1797C11.082 9.55078 10.8281 8.74219 10.8281 7.75391V7.33789C10.8281 5.76758 11.1621 4.56836 11.8301 3.74023C12.502 2.9082 13.5 2.48242 14.8242 2.46289H15.0176ZM13.5938 6.30664C13.2227 6.30664 12.8809 6.41797 12.5684 6.64062C12.2559 6.86328 12.0391 7.14258 11.918 7.47852V7.87695C11.918 8.58008 12.0762 9.14648 12.3926 9.57617C12.709 10.0059 13.1035 10.2207 13.5762 10.2207C14.0645 10.2207 14.4473 10.041 14.7246 9.68164C15.0059 9.32227 15.1465 8.85156 15.1465 8.26953C15.1465 7.68359 15.0039 7.21094 14.7188 6.85156C14.4375 6.48828 14.0625 6.30664 13.5938 6.30664Z" transform="translate(146 27)" fill="#215DF9"/>
</svg>
