<svg width="474" height="138" viewBox="0 0 474 138" fill="none" xmlns="http://www.w3.org/2000/svg">
<path d="M0 120C10.5 113.667 32.5 97.2 36.5 82C41.5 63 58 15.5 68.5 21.5C79 27.5 107.5 81.5 119.5 74C129.1 68 153.5 53.8333 164.5 47.5C178.5 44.5 207.4 36.8 211 30C214.6 23.2 232.833 12.8333 241.5 8.5L297.5 56H316.5L355.5 82H397L444.5 21.5L470.5 0" transform="translate(2 15.5)" stroke="#2862F5" stroke-width="4"/>
<circle cx="6.5" cy="6.5" r="6.5" transform="translate(233 20)" fill="white"/>
<circle cx="6.5" cy="6.5" r="8.5" transform="translate(233 20)" stroke="#1455FB" stroke-width="4"/>
<path d="M4.79883 8.77344C4.79883 8.44141 4.69336 8.16797 4.48242 7.95312C4.27148 7.73438 3.91992 7.53906 3.42773 7.36719C2.93555 7.19141 2.55273 7.0293 2.2793 6.88086C1.36914 6.39258 0.914062 5.66992 0.914062 4.71289C0.914062 4.06445 1.11133 3.53125 1.50586 3.11328C1.90039 2.69531 2.43555 2.44727 3.11133 2.36914V1.0918H4.04883V2.38086C4.72852 2.47852 5.25391 2.76758 5.625 3.24805C5.99609 3.72461 6.18164 4.3457 6.18164 5.11133H4.76367C4.76367 4.61914 4.65234 4.23242 4.42969 3.95117C4.21094 3.66602 3.91211 3.52344 3.5332 3.52344C3.1582 3.52344 2.86523 3.625 2.6543 3.82812C2.44336 4.03125 2.33789 4.32227 2.33789 4.70117C2.33789 5.04102 2.44141 5.31445 2.64844 5.52148C2.85938 5.72461 3.21484 5.91797 3.71484 6.10156C4.21484 6.28516 4.60742 6.45508 4.89258 6.61133C5.17773 6.76758 5.41797 6.94727 5.61328 7.15039C5.80859 7.34961 5.95898 7.58008 6.06445 7.8418C6.16992 8.10352 6.22266 8.41016 6.22266 8.76172C6.22266 9.42188 6.01953 9.95703 5.61328 10.3672C5.21094 10.7773 4.64844 11.0195 3.92578 11.0938V12.2363H2.99414V11.0996C2.2207 11.0137 1.625 10.7363 1.20703 10.2676C0.792969 9.79883 0.585938 9.17773 0.585938 8.4043H2.00977C2.00977 8.89648 2.13281 9.27734 2.37891 9.54688C2.62891 9.81641 2.98047 9.95117 3.43359 9.95117C3.87891 9.95117 4.2168 9.84375 4.44727 9.62891C4.68164 9.41406 4.79883 9.12891 4.79883 8.77344ZM7.83984 6.76953L8.30273 2.46875H12.8848V3.69922H9.48633L9.25195 5.73828C9.64648 5.51172 10.0918 5.39844 10.5879 5.39844C11.4004 5.39844 12.0312 5.6582 12.4805 6.17773C12.9336 6.69727 13.1602 7.39648 13.1602 8.27539C13.1602 9.14258 12.9102 9.83398 12.4102 10.3496C11.9102 10.8613 11.2246 11.1172 10.3535 11.1172C9.57227 11.1172 8.92383 10.8965 8.4082 10.4551C7.89648 10.0098 7.61914 9.42383 7.57617 8.69727H8.95312C9.00781 9.11133 9.15625 9.42969 9.39844 9.65234C9.64062 9.87109 9.95703 9.98047 10.3477 9.98047C10.7852 9.98047 11.125 9.82422 11.3672 9.51172C11.6133 9.19922 11.7363 8.77344 11.7363 8.23438C11.7363 7.71484 11.6016 7.30469 11.332 7.00391C11.0625 6.69922 10.6914 6.54688 10.2188 6.54688C9.96094 6.54688 9.74219 6.58203 9.5625 6.65234C9.38281 6.71875 9.1875 6.85156 8.97656 7.05078L7.83984 6.76953ZM18.709 2.42773V3.60547H18.5332C17.7363 3.61719 17.0996 3.83594 16.623 4.26172C16.1465 4.6875 15.8633 5.29102 15.7734 6.07227C16.2305 5.5918 16.8145 5.35156 17.5254 5.35156C18.2793 5.35156 18.873 5.61719 19.3066 6.14844C19.7441 6.67969 19.9629 7.36523 19.9629 8.20508C19.9629 9.07227 19.707 9.77539 19.1953 10.3145C18.6875 10.8496 18.0195 11.1172 17.1914 11.1172C16.3398 11.1172 15.6484 10.8027 15.1172 10.1738C14.5898 9.54492 14.3262 8.7207 14.3262 7.70117V7.21484C14.3262 5.71875 14.6895 4.54688 15.416 3.69922C16.1465 2.85156 17.1953 2.42773 18.5625 2.42773H18.709ZM17.1797 6.5C16.8672 6.5 16.5801 6.58789 16.3184 6.76367C16.0605 6.93945 15.8711 7.17383 15.75 7.4668V7.90039C15.75 8.5332 15.8828 9.03711 16.1484 9.41211C16.4141 9.7832 16.7578 9.96875 17.1797 9.96875C17.6016 9.96875 17.9355 9.81055 18.1816 9.49414C18.4277 9.17773 18.5508 8.76172 18.5508 8.24609C18.5508 7.73047 18.4258 7.31055 18.1758 6.98633C17.9258 6.66211 17.5938 6.5 17.1797 6.5ZM26.4727 4.71875C26.4727 5.13672 26.3652 5.50977 26.1504 5.83789C25.9355 6.16211 25.6426 6.41797 25.2715 6.60547C25.7168 6.8125 26.0586 7.0957 26.2969 7.45508C26.5391 7.81445 26.6602 8.2207 26.6602 8.67383C26.6602 9.42383 26.4062 10.0195 25.8984 10.4609C25.3906 10.8984 24.7148 11.1172 23.8711 11.1172C23.0234 11.1172 22.3438 10.8965 21.832 10.4551C21.3242 10.0137 21.0703 9.41992 21.0703 8.67383C21.0703 8.2168 21.1914 7.80664 21.4336 7.44336C21.6758 7.08008 22.0156 6.80078 22.4531 6.60547C22.0859 6.41797 21.7949 6.16211 21.5801 5.83789C21.3691 5.50977 21.2637 5.13672 21.2637 4.71875C21.2637 3.99219 21.498 3.41602 21.9668 2.99023C22.4355 2.56445 23.0684 2.35156 23.8652 2.35156C24.666 2.35156 25.3008 2.56445 25.7695 2.99023C26.2383 3.41602 26.4727 3.99219 26.4727 4.71875ZM25.2363 8.60352C25.2363 8.18164 25.1094 7.8418 24.8555 7.58398C24.6055 7.32227 24.2734 7.19141 23.8594 7.19141C23.4453 7.19141 23.1133 7.32031 22.8633 7.57812C22.6172 7.83594 22.4941 8.17773 22.4941 8.60352C22.4941 9.02148 22.6152 9.35547 22.8574 9.60547C23.1035 9.85547 23.4414 9.98047 23.8711 9.98047C24.3008 9.98047 24.6348 9.85938 24.873 9.61719C25.1152 9.375 25.2363 9.03711 25.2363 8.60352ZM25.0547 4.77148C25.0547 4.40039 24.9473 4.0957 24.7324 3.85742C24.5176 3.61523 24.2285 3.49414 23.8652 3.49414C23.502 3.49414 23.2148 3.60938 23.0039 3.83984C22.793 4.06641 22.6875 4.37695 22.6875 4.77148C22.6875 5.16211 22.793 5.47266 23.0039 5.70312C23.2188 5.93359 23.5078 6.04883 23.8711 6.04883C24.2344 6.04883 24.5215 5.93359 24.7324 5.70312C24.9473 5.47266 25.0547 5.16211 25.0547 4.77148ZM31.957 7.43164C31.4805 7.93555 30.9238 8.1875 30.2871 8.1875C29.5371 8.1875 28.9395 7.92578 28.4941 7.40234C28.0488 6.875 27.8262 6.18359 27.8262 5.32812C27.8262 4.76562 27.9395 4.25586 28.166 3.79883C28.3926 3.3418 28.7148 2.98633 29.1328 2.73242C29.5508 2.47852 30.0352 2.35156 30.5859 2.35156C31.4453 2.35156 32.127 2.67188 32.6309 3.3125C33.1348 3.95312 33.3867 4.81055 33.3867 5.88477V6.2832C33.3867 7.82227 33.0391 8.99609 32.3438 9.80469C31.6484 10.6133 30.6113 11.0234 29.2324 11.0352H29.0625V9.85742H29.2676C30.1074 9.8457 30.752 9.64453 31.2012 9.25391C31.6504 8.85938 31.9023 8.25195 31.957 7.43164ZM30.5859 7.07422C30.8711 7.07422 31.1387 6.99219 31.3887 6.82812C31.6387 6.66406 31.832 6.4375 31.9688 6.14844V5.5918C31.9688 4.96289 31.8398 4.45703 31.582 4.07422C31.3242 3.69141 30.9902 3.5 30.5801 3.5C30.1699 3.5 29.8418 3.66992 29.5957 4.00977C29.3535 4.3457 29.2324 4.77148 29.2324 5.28711C29.2324 5.82227 29.3555 6.25391 29.6016 6.58203C29.8477 6.91016 30.1758 7.07422 30.5859 7.07422Z" transform="translate(220 -1)" fill="#1455FB"/>
</svg>
