<svg aria-hidden="true" style="position:absolute;width:0;height:0" xmlns="http://www.w3.org/2000/svg" overflow="hidden"><defs><symbol id="icon-credit-card" viewBox="0 0 159 100"><path d="M149.149 0H9.944C4.447 0 0 4.473 0 10v20h159.091V10c0-5.527-4.447-10-9.942-10zM0 50v39.999c0 5.529 4.447 10.002 9.944 10.002h139.205c5.495 0 9.942-4.472 9.942-10.002V50H0zm49.716 30h-29.83V59.999h29.83V80zm49.715 0h-9.942V70h9.942v10zm19.887 0h-9.942V70h9.942v10zm19.887 0h-9.944V70h9.944v10z"/></symbol><symbol id="icon-dash" viewBox="0 0 172 100"><path d="M171.995 15.875c-.069-3.163-1.269-5.756-2.571-8.223-1.348-2.531-3.289-4.428-6.409-5.693C160.442.652 157.809 0 154.037 0H37.249l-8.341 24.731h105.804l-16.684 50.538H12.227L3.885 100h117.353c3.208 0 6.482-.668 10.267-1.959 3.288-1.835 7.058-3.733 10.265-6.244 2.645-1.98 5.776-5.079 8.318-8.242 2.014-3.162 3.911-6.329 5.158-9.557l15.464-47.996c1.282-3.233 1.874-6.965 1.286-10.127z"/><path d="M62.846 61.428l7.766-22.853H8.309L0 61.428h62.846z"/></symbol><symbol id="icon-monero" viewBox="0 0 100 100"><path d="M28.343 49.512v26.471H7.275C16.052 90.383 31.904 100 49.998 100s33.948-9.617 42.724-24.017H71.655V49.512L49.998 71.169 28.343 49.512z"/><path d="M49.999 0C22.391 0 0 22.388 0 49.999c0 5.52.894 10.828 2.547 15.794H17.5V23.724l32.5 32.5 32.5-32.5v42.069h14.954a49.91 49.91 0 0 0 2.547-15.794C100.001 22.389 77.61 0 50 0z"/></symbol><symbol id="icon-litcoin" viewBox="0 0 90 100"><path d="M39.226 80.342l6.417-24.457 15.194-5.618 3.779-14.374-.129-.356-14.956 5.53L60.307 0H29.746L15.654 53.593l-11.766 4.35L0 72.761l11.757-4.347-8.306 31.585h81.334l5.214-19.658H39.225z"/></symbol><symbol id="icon-ethereum" viewBox="0 0 100 100"><path d="M49.767 74.875L19.084 56.75 49.763 100l30.708-43.25-30.704 18.125zM50.233 0L19.541 50.929l30.688 18.142 30.688-18.125L50.234 0z"/></symbol><symbol id="icon-bell" viewBox="0 0 100 100"><path d="M50.893 94.643A.882.882 0 0 0 50 93.75c-4.408 0-8.036-3.627-8.036-8.036 0-.502-.391-.893-.893-.893s-.893.391-.893.893c0 5.413 4.408 9.821 9.821 9.821a.882.882 0 0 0 .893-.893zM13.728 78.571h72.545c-9.989-11.272-14.844-26.563-14.844-46.429 0-7.199-6.808-17.857-21.429-17.857S28.571 24.943 28.571 32.142c0 19.866-4.855 35.156-14.844 46.429zm82.701 0c0 3.906-3.237 7.143-7.143 7.143h-25C64.286 93.582 57.869 100 50 100s-14.286-6.417-14.286-14.286h-25c-3.906 0-7.143-3.237-7.143-7.143 8.259-6.975 17.857-19.475 17.857-46.429 0-10.714 8.873-22.433 23.661-24.609a5.617 5.617 0 0 1-.446-2.176C44.643 2.399 47.043 0 50 0s5.357 2.4 5.357 5.357c0 .781-.167 1.507-.446 2.176 14.788 2.176 23.661 13.895 23.661 24.609 0 26.953 9.598 39.453 17.857 46.429z"/></symbol><symbol id="icon-bitcoin" viewBox="0 0 74 100"><path d="M65.123 35.714c.725 7.422-2.4 11.886-7.31 14.397 8.147 1.953 13.281 6.808 12.277 17.69-1.283 13.56-11.328 17.188-25.725 17.969V100h-8.594V85.993c-2.176 0-4.464 0-6.808-.056V100h-8.594V85.77c-2.009 0-4.018-.056-6.083-.056H3.125l1.73-10.212c6.306.112 6.194 0 6.194 0 2.4 0 3.069-1.73 3.237-2.846V50.223h.893c-.335-.056-.67-.056-.893-.056V34.151c-.335-1.786-1.451-3.795-4.967-3.795 0 0 .112-.112-6.194 0v-9.152l11.83.056c1.73 0 3.571 0 5.413-.056V7.141h8.594v13.783c2.288-.056 4.576-.112 6.808-.112V7.14h8.594v14.063c11.049.949 19.81 4.353 20.759 14.509zM53.125 66.127c0-11.049-18.192-9.431-23.996-9.431v18.862c5.804 0 23.996 1.228 23.996-9.431zm-3.962-26.562c0-10.1-15.179-8.594-20.033-8.594v17.132c4.855 0 20.033 1.116 20.033-8.538z"/></symbol><symbol id="icon-menu" viewBox="0 0 100 100"><path d="M0 15h100v10H0V15zm0 30h100v10H0V45zm0 30h100v10H0V75z"/></symbol><symbol id="icon-paperplane" viewBox="0 0 100 100"><path d="M98.572.5a3.133 3.133 0 0 0-3.431.025l-93.75 62.5A3.11 3.11 0 0 0 .019 65.95a3.11 3.11 0 0 0 1.947 2.575l24.45 9.784 11.497 20.119a3.12 3.12 0 0 0 2.678 1.575h.034a3.129 3.129 0 0 0 2.678-1.519l6.491-10.822 30.297 12.116c.372.15.763.222 1.159.222a3.127 3.127 0 0 0 3.081-2.612l15.625-93.75A3.135 3.135 0 0 0 98.572.5zM9.8 64.928l72.422-48.284L29.566 73.01c-.278-.166-.525-.384-.831-.506L9.801 64.929zm22.041 10.278c-.006-.013-.016-.019-.022-.031l59.197-63.359L40.55 90.447l-8.709-15.241zm46.962 17.322L52.112 81.853c-.634-.25-1.294-.334-1.947-.372l41.1-63.713-12.463 74.759z"/></symbol><symbol id="icon-user" viewBox="0 0 100 100"><path d="M66.667 58.333H33.334c-11.667 0-20.833 9.167-20.833 20.833v8.333c0 2.5 1.667 4.167 4.167 4.167s4.167-1.667 4.167-4.167v-8.333c0-7.083 5.417-12.5 12.5-12.5h33.333c7.083 0 12.5 5.417 12.5 12.5v8.333c0 2.5 1.667 4.167 4.167 4.167s4.167-1.667 4.167-4.167v-8.333c0-11.667-9.167-20.833-20.833-20.833zM50 50c11.667 0 20.833-9.167 20.833-20.833S61.666 8.334 50 8.334s-20.833 9.167-20.833 20.833S38.334 50 50 50zm0-33.333c7.083 0 12.5 5.417 12.5 12.5s-5.417 12.5-12.5 12.5-12.5-5.417-12.5-12.5 5.417-12.5 12.5-12.5z"/></symbol><symbol id="icon-settings" viewBox="0 0 100 100"><path d="M50 33.333c-9.167 0-16.667 7.5-16.667 16.667S40.833 66.667 50 66.667c9.167 0 16.667-7.5 16.667-16.667S59.167 33.333 50 33.333zm0 25c-4.583 0-8.333-3.75-8.333-8.333s3.75-8.333 8.333-8.333 8.333 3.75 8.333 8.333-3.75 8.333-8.333 8.333z"/><path d="M84.583 64.167C85 63.334 85.833 62.5 87.5 62.5c7.083 0 12.5-5.417 12.5-12.5s-5.417-12.5-12.5-12.5h-.833c-.833 0-1.667-.417-2.083-1.25 0-.417 0-.417-.417-.833-.417-.833-.417-2.083.833-3.333 5-5 5-12.917 0-17.5-2.5-2.5-5.417-3.75-8.75-3.75s-6.667 1.25-9.167 3.75c-.833.833-2.083.833-2.917.417-.833 0-1.667-1.25-1.667-2.5 0-7.083-5.417-12.5-12.5-12.5s-12.5 5.417-12.5 12.5v.833c0 .833-.417 1.667-1.25 2.083-.417 0-.417 0-.833.417-.833.417-2.083 0-3.333-.833-5-5-12.917-5-17.5 0-5 5-5 12.917.417 17.917.833.833.833 2.083.417 3.333-.417.833-1.667 1.667-2.917 1.667-7.083 0-12.5 5.417-12.5 12.5s5.417 12.5 12.5 12.5h.833c1.25 0 2.083.833 2.5 1.667s.417 2.083-.833 3.333c-2.5 2.5-3.75 5.417-3.75 8.75s1.25 6.25 3.75 8.75c5 5 12.917 5 17.917-.417.833-.833 2.083-.833 3.333-.417s1.667 1.25 1.667 2.917c0 7.083 5.417 12.5 12.5 12.5s12.5-5.417 12.5-12.5v-.833c0-1.25.833-2.083 1.667-2.5s2.083-.417 3.333.833c5 5 12.917 5 17.5 0 5-5 5-12.917-.417-17.917-.417-.833-.833-2.083-.417-2.917zm-7.5-3.334c-1.667 4.167-.833 8.75 2.5 12.5.833.833 1.25 1.667 1.25 2.917s-.417 2.083-1.25 2.917c-.833.833-1.667 1.25-2.917 1.25-1.25 0-2.083-.417-3.333-1.667-3.333-3.333-7.917-4.167-12.083-2.083-4.167 1.667-6.667 5.833-6.667 10v.833c0 2.5-1.667 4.167-4.167 4.167S46.249 90 46.249 87.5v-.417c0-4.583-2.917-8.333-7.083-10-1.25-.833-2.917-.833-4.583-.833-2.917 0-5.833 1.25-7.917 3.333-1.667 1.667-4.167 1.667-5.833 0-.833-.833-1.25-1.667-1.25-2.917s.417-2.083 1.667-3.333c3.333-3.333 4.167-7.917 2.083-12.083-1.667-4.167-5.833-6.667-10-6.667H12.5c-2.5 0-4.167-1.667-4.167-4.167S10 46.249 12.5 46.249h.417c4.583 0 8.333-2.917 10-7.083s.833-8.75-2.5-12.5c-1.667-1.667-1.667-4.167 0-5.833s4.167-1.667 6.25.417c2.917 2.917 7.5 3.75 11.25 2.5.417 0 .833 0 1.25-.417 4.167-1.667 6.667-5.833 6.667-10V12.5c0-2.5 1.667-4.167 4.167-4.167s4.167 1.667 4.167 4.583c0 4.583 2.5 8.333 6.667 10s8.75.833 12.5-2.5c.833-.833 1.667-1.25 2.917-1.25 1.25 0 2.083.417 2.917 1.25 1.667 1.667 1.667 4.167-.417 6.25-2.917 2.917-3.75 7.5-2.5 11.25 0 .417 0 .833.417 1.25 1.667 4.167 5.833 6.667 10 6.667h.833c2.5 0 4.167 1.667 4.167 4.167s-1.667 4.167-4.583 4.167c-4.167 0-8.333 2.5-10 6.667z"/></symbol><symbol id="icon-shopping-cart" viewBox="0 0 100 100"><path d="M45.833 87.5a8.333 8.333 0 1 1-16.666 0 8.333 8.333 0 0 1 16.666 0zM91.667 87.5a8.333 8.333 0 1 1-16.666 0 8.333 8.333 0 0 1 16.666 0zM99.167 22.5c-.833-1.25-2.083-1.667-3.333-1.667h-67.5l-3.333-17.5C24.584 1.25 22.918 0 20.834 0H4.167C1.667 0 0 1.667 0 4.167s1.667 4.167 4.167 4.167H17.5l3.333 17.5v.417l7.083 34.583c1.25 5.833 6.25 10 12.083 10h40.834c6.25 0 11.25-4.167 12.5-10l6.667-35c0-1.25 0-2.5-.833-3.333zM85 59.167c-.417 2.083-2.083 3.333-4.167 3.333H40.416c-2.083 0-3.75-1.25-4.167-3.333l-6.25-30h60.833l-5.833 30z"/></symbol><symbol id="icon-add" viewBox="0 0 100 100"><path d="M79.102 54.102h-25v25h-8.203v-25h-25v-8.203h25v-25h8.203v25h25v8.203z"/></symbol><symbol id="icon-dashboard" viewBox="0 0 100 100"><path d="M54.102 12.5H87.5v25H54.102v-25zm0 75V45.898H87.5V87.5H54.102zm-41.602 0v-25h33.398v25H12.5zm0-33.398V12.5h33.398v41.602H12.5z"/></symbol></defs></svg>