<svg aria-hidden="true" style="position:absolute;width:0;height:0" xmlns="http://www.w3.org/2000/svg" overflow="hidden"><defs><symbol id="icon-paperplane" viewBox="0 0 32 32"><path d="M31.543.16a1.002 1.002 0 0 0-1.098.008l-30 20a.995.995 0 0 0-.439.936.995.995 0 0 0 .623.824l7.824 3.131 3.679 6.438a1 1 0 0 0 .857.504H13c.351 0 .677-.186.857-.486l2.077-3.463 9.695 3.877a.992.992 0 0 0 .861-.058c.264-.148.445-.408.496-.707l5-30A1.002 1.002 0 0 0 31.543.16zM3.136 20.777L26.311 5.326 9.461 23.363c-.089-.053-.168-.123-.266-.162l-6.059-2.424zm7.053 3.289l-.007-.01L29.125 3.781 12.976 28.943l-2.787-4.877zm15.028 5.543l-8.541-3.416a1.987 1.987 0 0 0-.623-.119L29.205 5.686l-3.988 23.923z"/></symbol><symbol id="icon-user" viewBox="0 0 24 24"><path d="M16 14H8c-2.8 0-5 2.2-5 5v2c0 .6.4 1 1 1s1-.4 1-1v-2c0-1.7 1.3-3 3-3h8c1.7 0 3 1.3 3 3v2c0 .6.4 1 1 1s1-.4 1-1v-2c0-2.8-2.2-5-5-5zM12 12c2.8 0 5-2.2 5-5s-2.2-5-5-5-5 2.2-5 5 2.2 5 5 5zm0-8c1.7 0 3 1.3 3 3s-1.3 3-3 3-3-1.3-3-3 1.3-3 3-3z"/></symbol><symbol id="icon-settings" viewBox="0 0 24 24"><path d="M12 8c-2.2 0-4 1.8-4 4s1.8 4 4 4 4-1.8 4-4-1.8-4-4-4zm0 6c-1.1 0-2-.9-2-2s.9-2 2-2 2 .9 2 2-.9 2-2 2z"/><path d="M20.3 15.4c.1-.2.3-.4.7-.4 1.7 0 3-1.3 3-3s-1.3-3-3-3h-.2c-.2 0-.4-.1-.5-.3 0-.1 0-.1-.1-.2-.1-.2-.1-.5.2-.8 1.2-1.2 1.2-3.1 0-4.2-.6-.6-1.3-.9-2.1-.9s-1.6.3-2.2.9c-.2.2-.5.2-.7.1-.2 0-.4-.3-.4-.6 0-1.7-1.3-3-3-3S9 1.3 9 3v.2c0 .2-.1.4-.3.5-.1 0-.1 0-.2.1-.2.1-.5 0-.8-.2-1.2-1.2-3.1-1.2-4.2 0-1.2 1.2-1.2 3.1.1 4.3.2.2.2.5.1.8-.1.2-.4.4-.7.4-1.7 0-3 1.3-3 3s1.3 3 3 3h.2c.3 0 .5.2.6.4s.1.5-.2.8c-.6.6-.9 1.3-.9 2.1s.3 1.5.9 2.1c1.2 1.2 3.1 1.2 4.3-.1.2-.2.5-.2.8-.1s.4.3.4.7c0 1.7 1.3 3 3 3s3-1.3 3-3v-.2c0-.3.2-.5.4-.6s.5-.1.8.2c1.2 1.2 3.1 1.2 4.2 0 1.2-1.2 1.2-3.1-.1-4.3-.1-.2-.2-.5-.1-.7zm-1.8-.8c-.4 1-.2 2.1.6 3 .2.2.3.4.3.7s-.1.5-.3.7c-.2.2-.4.3-.7.3-.3 0-.5-.1-.8-.4-.8-.8-1.9-1-2.9-.5-1 .4-1.6 1.4-1.6 2.4v.2c0 .6-.4 1-1 1s-1-.4-1-1v-.1c0-1.1-.7-2-1.7-2.4-.3-.2-.7-.2-1.1-.2-.7 0-1.4.3-1.9.8-.4.4-1 .4-1.4 0-.2-.2-.3-.4-.3-.7s.1-.5.4-.8c.8-.8 1-1.9.5-2.9-.4-1-1.4-1.6-2.4-1.6H3c-.6 0-1-.4-1-1s.4-1 1-1h.1c1.1 0 2-.7 2.4-1.7s.2-2.1-.6-3c-.4-.4-.4-1 0-1.4s1-.4 1.5.1c.7.7 1.8.9 2.7.6.1 0 .2 0 .3-.1 1-.4 1.6-1.4 1.6-2.4V3c0-.6.4-1 1-1s1 .4 1 1.1c0 1.1.6 2 1.6 2.4s2.1.2 3-.6c.2-.2.4-.3.7-.3.3 0 .5.1.7.3.4.4.4 1-.1 1.5-.7.7-.9 1.8-.6 2.7 0 .1 0 .2.1.3.4 1 1.4 1.6 2.4 1.6h.2c.6 0 1 .4 1 1s-.4 1-1.1 1c-1 0-2 .6-2.4 1.6z"/></symbol><symbol id="icon-shopping-cart" viewBox="0 0 24 24"><path d="M11 21a2 2 0 1 1-3.999.001A2 2 0 0 1 11 21zM22 21a2 2 0 1 1-3.999.001A2 2 0 0 1 22 21zM23.8 5.4c-.2-.3-.5-.4-.8-.4H6.8L6 .8C5.9.3 5.5 0 5 0H1C.4 0 0 .4 0 1s.4 1 1 1h3.2L5 6.2v.1l1.7 8.3C7 16 8.2 17 9.6 17H19.4c1.5 0 2.7-1 3-2.4L24 6.2c0-.3 0-.6-.2-.8zm-3.4 8.8c-.1.5-.5.8-1 .8H9.7c-.5 0-.9-.3-1-.8L7.2 7h14.6l-1.4 7.2z"/></symbol><symbol id="icon-dashboard" viewBox="0 0 24 24"><path d="M12.984 3H21v6h-8.016V3zm0 18v-9.984H21V21h-8.016zM3 21v-6h8.016v6H3zm0-8.016V3h8.016v9.984H3z"/></symbol></defs></svg>