<svg width="50" height="50" viewBox="0 0 50 50" fill="none" xmlns="http://www.w3.org/2000/svg">
<mask id="path-1-inside-1" fill="white">
<path d="M37.5 12.5C37.5 19.4167 31.9167 25 25 25C18.0833 25 12.5 19.4167 12.5 12.5C12.5 5.58333 18.0833 0 25 0C31.9167 0 37.5 5.58333 37.5 12.5ZM0 45.8333C0 37.5 16.6667 32.9167 25 32.9167C33.3333 32.9167 50 37.5 50 45.8333V50H0V45.8333Z"/>
</mask>
<path d="M37.5 12.5C37.5 19.4167 31.9167 25 25 25C18.0833 25 12.5 19.4167 12.5 12.5C12.5 5.58333 18.0833 0 25 0C31.9167 0 37.5 5.58333 37.5 12.5ZM0 45.8333C0 37.5 16.6667 32.9167 25 32.9167C33.3333 32.9167 50 37.5 50 45.8333V50H0V45.8333Z" stroke="#B4B9CA" stroke-width="6" mask="url(#path-1-inside-1)"/>
</svg>
