<svg width="50" height="50" viewBox="0 0 50 50" fill="none" xmlns="http://www.w3.org/2000/svg">
<path d="M14.2501 32.9212H43.8961C47.2577 32.9212 50 30.3728 50 27.2488V15.6575C50 15.6472 50 15.6266 50 15.6164C50 15.5855 50 15.565 50 15.5342C50 15.5136 50 15.4931 49.9889 15.4725C49.9889 15.452 49.9779 15.4211 49.9779 15.4006C49.9779 15.38 49.9668 15.3595 49.9668 15.3389C49.9558 15.3184 49.9558 15.2978 49.9447 15.267C49.9337 15.2464 49.9337 15.2259 49.9226 15.2053C49.9115 15.1848 49.9115 15.1642 49.9005 15.1437C49.8894 15.1231 49.8784 15.1026 49.8673 15.0717C49.8562 15.0512 49.8452 15.0306 49.8341 15.0204C49.8231 14.9998 49.812 14.9793 49.801 14.9587C49.7899 14.9382 49.7788 14.9279 49.7678 14.9073C49.7567 14.8868 49.7346 14.8662 49.7236 14.8457C49.7125 14.8251 49.7014 14.8148 49.6793 14.7943C49.6683 14.7737 49.6461 14.7635 49.6351 14.7429C49.624 14.7224 49.6019 14.7121 49.5909 14.6915C49.5798 14.671 49.5577 14.6607 49.5466 14.6504C49.5245 14.6299 49.5135 14.6196 49.4913 14.599C49.4692 14.5888 49.4582 14.5682 49.4361 14.5579C49.4139 14.5477 49.3918 14.5271 49.3697 14.5168C49.3476 14.5066 49.3365 14.4963 49.3144 14.486C49.2923 14.4757 49.2702 14.4655 49.2481 14.4449C49.226 14.4346 49.2038 14.4243 49.1817 14.4141C49.1596 14.4038 49.1375 14.3935 49.1154 14.3832C49.0933 14.373 49.0711 14.3627 49.049 14.3524C49.0269 14.3421 49.0048 14.3421 48.9827 14.3319C48.9606 14.3216 48.9274 14.3113 48.9053 14.3113C48.8832 14.3113 48.861 14.301 48.85 14.301C48.8168 14.2908 48.7947 14.2908 48.7615 14.2908C48.7505 14.2908 48.7394 14.2805 48.7173 14.2805L11.1428 9.46102V4.59018C11.1428 4.5388 11.1428 4.48742 11.1318 4.44631C11.1318 4.43604 11.1318 4.42576 11.1207 4.40521C11.1207 4.37438 11.1097 4.34355 11.1097 4.31273C11.0986 4.2819 11.0986 4.26134 11.0875 4.23052C11.0875 4.20996 11.0765 4.19969 11.0765 4.17914C11.0654 4.14831 11.0544 4.11748 11.0433 4.08665C11.0433 4.07638 11.0322 4.05582 11.0322 4.04555C11.0212 4.01472 11.0101 3.99417 10.988 3.96334C10.977 3.95306 10.977 3.93251 10.9659 3.92224C10.9548 3.90168 10.9438 3.88113 10.9217 3.86058C10.9106 3.84003 10.8996 3.82975 10.8885 3.8092C10.8774 3.78865 10.8664 3.77837 10.8553 3.75782C10.8443 3.73727 10.8221 3.71672 10.8111 3.69616C10.8 3.68589 10.789 3.67561 10.7779 3.66533C10.7558 3.64478 10.7337 3.62423 10.7116 3.60368C10.7005 3.5934 10.6895 3.58313 10.6784 3.57285C10.6563 3.5523 10.6342 3.53175 10.601 3.51119C10.5899 3.50092 10.5678 3.49064 10.5568 3.48037C10.5346 3.45981 10.5125 3.44954 10.4904 3.42899C10.4572 3.40843 10.4241 3.38788 10.402 3.37761C10.3909 3.36733 10.3798 3.36733 10.3688 3.35705C10.3245 3.3365 10.2693 3.31595 10.225 3.2954L2.07541 0.109825C1.31242 -0.18818 0.438857 0.140653 0.11818 0.8497C-0.202496 1.55875 0.151354 2.37055 0.914343 2.66856L8.14616 5.50475V11.7937V12.7905V20.4358V27.2694V35.9013C8.14616 38.7786 10.4683 41.1626 13.465 41.5223C12.9231 42.3649 12.6025 43.3514 12.6025 44.3996C12.6025 47.4926 15.3116 50 18.629 50C21.9463 50 24.6555 47.4824 24.6555 44.3996C24.6555 43.372 24.3569 42.3957 23.8261 41.5736H37.2503C36.7196 42.406 36.421 43.372 36.421 44.3996C36.421 47.4926 39.1302 50 42.4475 50C45.7649 50 48.474 47.4824 48.474 44.3996C48.474 41.3167 45.7649 38.7991 42.4475 38.7991H14.2501C12.5251 38.7991 11.1318 37.4941 11.1318 35.9013V32.1402C12.0385 32.6335 13.1111 32.9212 14.2501 32.9212ZM21.6809 44.3893C21.6809 45.9512 20.3098 47.2152 18.64 47.2152C16.9703 47.2152 15.5991 45.941 15.5991 44.3893C15.5991 42.8376 16.9703 41.5634 18.64 41.5634C20.3098 41.5634 21.6809 42.8273 21.6809 44.3893ZM45.4995 44.3893C45.4995 45.9512 44.1283 47.2152 42.4586 47.2152C40.7888 47.2152 39.4177 45.941 39.4177 44.3893C39.4177 42.8376 40.7888 41.5634 42.4586 41.5634C44.1283 41.5634 45.4995 42.8273 45.4995 44.3893ZM43.8961 30.1467H14.2501C12.5251 30.1467 11.1318 28.8416 11.1318 27.2488V20.4153V12.7699V12.2561L47.0144 16.8495V27.2386C47.0144 28.8519 45.61 30.1467 43.8961 30.1467Z" fill="#B4B9CA"/>
</svg>
