<svg width="50" height="50" viewBox="0 0 50 50" fill="none" xmlns="http://www.w3.org/2000/svg">
<path d="M49.572 0.418082C49.1562 0.00205427 48.5166 -0.115287 47.9836 0.119395L0.865886 20.7821C0.36486 21.0061 0.0343965 21.4861 0.00241614 22.0302C-0.0295642 22.5742 0.258259 23.0862 0.727304 23.3529L17.1545 32.6762L26.9086 49.2853C27.1644 49.7226 27.6441 50 28.1451 50C28.1771 50 28.1984 50 28.2304 50C28.7741 49.968 29.2431 49.6373 29.467 49.1359L49.8811 2.00752C50.1156 1.46348 49.9984 0.834109 49.572 0.418082ZM42.0779 5.84777L17.9647 29.8173L4.65023 22.2648L42.0779 5.84777ZM27.9532 45.381L20.0115 31.8441L44.2632 7.73589L27.9532 45.381Z" fill="#B4B9CA"/>
</svg>
