<svg width="50" height="50" viewBox="0 0 50 50" fill="none" xmlns="http://www.w3.org/2000/svg">
<mask id="path-1-inside-1" fill="white">
<path d="M25 17.8571C20.961 17.8571 17.6563 21.0714 17.6563 25C17.6563 28.9286 20.961 32.1429 25 32.1429C29.039 32.1429 32.3437 28.9286 32.3437 25C32.3437 21.0714 29.039 17.8571 25 17.8571ZM44.2773 25C44.2773 25.8214 44.2038 26.6429 44.0937 27.4286L49.528 31.5714C50.0054 31.9643 50.1522 32.6429 49.8218 33.1786L44.6812 41.8214C44.3507 42.3571 43.6898 42.5714 43.1023 42.3571L36.7132 39.8571C35.3914 40.8571 33.9226 41.6786 32.3804 42.3214L31.4258 48.9286C31.3156 49.5357 30.7648 50 30.1406 50H19.8594C19.2352 50 18.6844 49.5357 18.5743 48.9643L17.6196 42.3571C16.0407 41.7143 14.6086 40.8929 13.2868 39.8929L6.89774 42.3929C6.31024 42.6071 5.64929 42.3928 5.31882 41.8571L0.178224 33.2143C-0.152243 32.6786 -0.00536005 32 0.471982 31.6071L5.90634 27.4643C5.79618 26.6429 5.72274 25.8214 5.72274 25C5.72274 24.1786 5.79618 23.3571 5.90634 22.5714L0.471982 18.4286C-0.00536005 18.0357 -0.152243 17.3571 0.178224 16.8214L5.31882 8.17857C5.64929 7.64286 6.31024 7.42857 6.89774 7.64286L13.2868 10.1429C14.6086 9.14286 16.0774 8.32143 17.6196 7.67857L18.5743 1.07143C18.6844 0.464287 19.2352 0 19.8594 0H30.1406C30.7648 0 31.3156 0.464286 31.4258 1.03571L32.3804 7.64286C33.9593 8.28571 35.3914 9.10714 36.7132 10.1071L43.1023 7.60714C43.6898 7.39286 44.3507 7.60714 44.6812 8.14286L49.8218 16.7857C50.1522 17.3214 50.0054 18 49.528 18.3929L44.0937 22.5357C44.2038 23.3571 44.2773 24.1786 44.2773 25Z"/>
</mask>
<path d="M25 17.8571C20.961 17.8571 17.6563 21.0714 17.6563 25C17.6563 28.9286 20.961 32.1429 25 32.1429C29.039 32.1429 32.3437 28.9286 32.3437 25C32.3437 21.0714 29.039 17.8571 25 17.8571ZM44.2773 25C44.2773 25.8214 44.2038 26.6429 44.0937 27.4286L49.528 31.5714C50.0054 31.9643 50.1522 32.6429 49.8218 33.1786L44.6812 41.8214C44.3507 42.3571 43.6898 42.5714 43.1023 42.3571L36.7132 39.8571C35.3914 40.8571 33.9226 41.6786 32.3804 42.3214L31.4258 48.9286C31.3156 49.5357 30.7648 50 30.1406 50H19.8594C19.2352 50 18.6844 49.5357 18.5743 48.9643L17.6196 42.3571C16.0407 41.7143 14.6086 40.8929 13.2868 39.8929L6.89774 42.3929C6.31024 42.6071 5.64929 42.3928 5.31882 41.8571L0.178224 33.2143C-0.152243 32.6786 -0.00536005 32 0.471982 31.6071L5.90634 27.4643C5.79618 26.6429 5.72274 25.8214 5.72274 25C5.72274 24.1786 5.79618 23.3571 5.90634 22.5714L0.471982 18.4286C-0.00536005 18.0357 -0.152243 17.3571 0.178224 16.8214L5.31882 8.17857C5.64929 7.64286 6.31024 7.42857 6.89774 7.64286L13.2868 10.1429C14.6086 9.14286 16.0774 8.32143 17.6196 7.67857L18.5743 1.07143C18.6844 0.464287 19.2352 0 19.8594 0H30.1406C30.7648 0 31.3156 0.464286 31.4258 1.03571L32.3804 7.64286C33.9593 8.28571 35.3914 9.10714 36.7132 10.1071L43.1023 7.60714C43.6898 7.39286 44.3507 7.60714 44.6812 8.14286L49.8218 16.7857C50.1522 17.3214 50.0054 18 49.528 18.3929L44.0937 22.5357C44.2038 23.3571 44.2773 24.1786 44.2773 25Z" stroke="#B4B9CA" stroke-width="6" mask="url(#path-1-inside-1)"/>
</svg>
